<?xml version="1.0" encoding="UTF-8"?>
<!DOCTYPE svg PUBLIC "-//W3C//DTD SVG 1.1//EN" "http://www.w3.org/Graphics/SVG/1.1/DTD/svg11.dtd">
<!-- Creator: CorelDRAW 2019 -->
<svg xmlns="http://www.w3.org/2000/svg" xml:space="preserve" width="80px" height="80px" version="1.1" style="shape-rendering:geometricPrecision; text-rendering:geometricPrecision; image-rendering:optimizeQuality; fill-rule:evenodd; clip-rule:evenodd"
viewBox="0 0 0.34 0.34"
 xmlns:xlink="http://www.w3.org/1999/xlink"
 xmlns:xodm="http://www.corel.com/coreldraw/odm/2003">
 <defs>
  <style type="text/css">
   <![CDATA[
    .fil1 {fill:none}
    .fil0 {fill:black}
   ]]>
  </style>
   <clipPath id="id0">
    <path d="M0.17 0c0.1,0 0.17,0.08 0.17,0.17 0,0.1 -0.07,0.17 -0.17,0.17 -0.09,0 -0.17,-0.07 -0.17,-0.17 0,-0.09 0.08,-0.17 0.17,-0.17z"/>
   </clipPath>
 </defs>
 <g id="Capa_x0020_1">
  <metadata id="CorelCorpID_0Corel-Layer"/>
  <g>
  </g>
  <g style="clip-path:url(#id0)">
   <g>
    <path class="fil0" d="M0.08 0.13c0,0 0,0 0,0 0.03,0.02 0.04,0.07 0.05,0.09 0.01,0.01 0.01,0.03 0.02,0.04 0.01,0.02 0.02,0.03 0.05,0.04 0.01,0 0.02,0 0.02,0 0.02,-0.01 0.04,-0.02 0.05,-0.03 0,0 0,0 0,0 0.01,-0.01 0.02,-0.02 0.02,-0.03 0,0 0,0 0,0 0,-0.01 0,-0.01 0,-0.01 -0.01,-0.01 -0.01,-0.01 -0.01,-0.02 -0.01,-0.01 -0.02,-0.02 -0.03,-0.02l-0.01 -0.01c-0.02,-0.02 -0.05,-0.04 -0.07,-0.05 -0.02,-0.01 -0.06,-0.02 -0.08,-0.03 0,0.01 -0.01,0.02 -0.01,0.03zm0 -0.03c-0.01,0 -0.01,0 -0.02,0.01 -0.01,0 -0.01,0 -0.01,0 -0.01,0.01 -0.01,0.03 -0.01,0.04 0,-0.01 0,-0.01 0,-0.01 0.01,-0.01 0.02,-0.01 0.03,-0.01l0.01 -0.03zm-0.03 0c0.03,0 0.02,0 0.04,0 0,-0.01 0.01,-0.02 0.01,-0.02 0,0 -0.01,-0.01 -0.01,-0.02 -0.01,0.01 -0.03,0.03 -0.04,0.04zm0.06 -0.02c0.01,-0.02 0.04,-0.04 0.06,-0.04 0,0 0,0 0,0l0 -0.01c-0.02,0 -0.05,0.01 -0.07,0.02 0,0 -0.01,0.01 -0.01,0.01 0,0 0,0.01 0.01,0.01 0,0 0,0.01 0.01,0.01zm-0.05 0.17c0,-0.01 0,-0.01 -0.01,-0.02 0,-0.01 0,-0.03 0,-0.05 0.01,-0.01 0.01,-0.02 0.01,-0.04 0.01,0 0.01,-0.01 0.01,-0.01 -0.02,0 -0.03,0.03 -0.04,0.03 0,0.02 0.01,0.04 0.01,0.06 0.01,0.01 0.01,0.02 0.02,0.03zm0.05 -0.17c0.05,0 0.09,-0.03 0.14,-0.01 0.01,0 0.01,0 0.02,0.01 0,0 0.01,0 0.01,0.01 0,-0.01 -0.01,-0.01 -0.01,-0.02 0,0 0,0 -0.01,0 -0.02,-0.02 -0.03,-0.03 -0.06,-0.03 -0.02,-0.01 -0.02,-0.01 -0.03,0 -0.01,0.01 -0.03,0.01 -0.04,0.02 0,0.01 -0.01,0.02 -0.02,0.02zm-0.04 0.05c0,0.01 -0.01,0.03 -0.01,0.03 0,0.03 0,0.06 0,0.08 0,0.02 0,0.02 0.01,0.03 0,0 0.01,0 0.01,0l0 0.01c0.01,0 0.01,0 0.01,0 0.02,0.02 0.05,0.03 0.08,0.03 0.01,0 0.03,0 0.04,0 -0.02,-0.01 -0.04,-0.02 -0.05,-0.03 -0.02,-0.01 -0.02,-0.03 -0.03,-0.05 -0.01,-0.02 -0.01,-0.04 -0.02,-0.06 -0.01,-0.01 -0.02,-0.04 -0.04,-0.04zm0.02 -0.03c0.01,0 0.02,0 0.02,0 0.03,0.01 0.08,0.03 0.1,0.05 0.01,0.01 0.02,0.01 0.03,0.02l0.01 0.01c0.01,0.01 0.03,0.03 0.04,0.04 0,0 0.01,0.01 0.01,0.01 0,0 0,-0.01 0,-0.02 0.01,-0.02 0.01,-0.05 0.01,-0.07 -0.01,-0.01 -0.01,-0.02 -0.02,-0.04 -0.01,0 -0.02,-0.01 -0.03,-0.02 -0.05,-0.03 -0.09,0.01 -0.14,0 0,0 -0.01,0 -0.01,0 0,0 0,0 0,0.01 -0.01,0 -0.01,0.01 -0.02,0.01z"/>
   </g>
  </g>
  <path class="fil1" d="M0.17 0c0.1,0 0.17,0.08 0.17,0.17 0,0.1 -0.07,0.17 -0.17,0.17 -0.09,0 -0.17,-0.07 -0.17,-0.17 0,-0.09 0.08,-0.17 0.17,-0.17z"/>
 </g>
</svg>
