<?xml version="1.0" encoding="UTF-8"?>
<!DOCTYPE svg PUBLIC "-//W3C//DTD SVG 1.1//EN" "http://www.w3.org/Graphics/SVG/1.1/DTD/svg11.dtd">
<!-- Creator: CorelDRAW 2019 -->
<svg xmlns="http://www.w3.org/2000/svg" xml:space="preserve" width="80px" height="80px" version="1.1" style="shape-rendering:geometricPrecision; text-rendering:geometricPrecision; image-rendering:optimizeQuality; fill-rule:evenodd; clip-rule:evenodd"
viewBox="0 0 4.51 4.51"
 xmlns:xlink="http://www.w3.org/1999/xlink"
 xmlns:xodm="http://www.corel.com/coreldraw/odm/2003">
 <defs>
  <style type="text/css">
   <![CDATA[
    .fil1 {fill:none}
    .fil0 {fill:black}
   ]]>
  </style>
   <clipPath id="id0">
    <path d="M2.25 0c1.25,0 2.26,1.01 2.26,2.25 0,1.25 -1.01,2.26 -2.26,2.26 -1.24,0 -2.25,-1.01 -2.25,-2.26 0,-1.24 1.01,-2.25 2.25,-2.25z"/>
   </clipPath>
 </defs>
 <g id="Capa_x0020_1">
  <metadata id="CorelCorpID_0Corel-Layer"/>
  <g>
  </g>
  <g style="clip-path:url(#id0)">
   <g>
    <path class="fil0" d="M2.25 1.25c-0.03,-0.04 -0.11,-0.17 -0.2,-0.27 -0.67,-0.76 -1.79,-0.05 -1.57,0.96 0.14,0.7 0.8,1.05 1.3,1.46 0.15,0.12 0.3,0.24 0.42,0.38l0.05 0.07 0.23 -0.25c0.08,-0.07 0.17,-0.13 0.25,-0.21 0.44,-0.39 1.15,-0.7 1.3,-1.45 0.1,-0.49 -0.1,-1.01 -0.59,-1.21 -0.28,-0.11 -0.51,-0.09 -0.74,0.05 -0.27,0.16 -0.32,0.32 -0.45,0.47z"/>
   </g>
  </g>
  <path class="fil1" d="M2.25 0c1.25,0 2.26,1.01 2.26,2.25 0,1.25 -1.01,2.26 -2.26,2.26 -1.24,0 -2.25,-1.01 -2.25,-2.26 0,-1.24 1.01,-2.25 2.25,-2.25z"/>
 </g>
</svg>
