<?xml version="1.0" encoding="UTF-8"?>
<!DOCTYPE svg PUBLIC "-//W3C//DTD SVG 1.1//EN" "http://www.w3.org/Graphics/SVG/1.1/DTD/svg11.dtd">
<!-- Creator: CorelDRAW 2019 -->
<svg xmlns="http://www.w3.org/2000/svg" xml:space="preserve" width="80px" height="80px" version="1.1" style="shape-rendering:geometricPrecision; text-rendering:geometricPrecision; image-rendering:optimizeQuality; fill-rule:evenodd; clip-rule:evenodd"
viewBox="0 0 5.93 5.93"
 xmlns:xlink="http://www.w3.org/1999/xlink"
 xmlns:xodm="http://www.corel.com/coreldraw/odm/2003">
 <defs>
  <style type="text/css">
   <![CDATA[
    .fil1 {fill:none}
    .fil0 {fill:black}
   ]]>
  </style>
   <clipPath id="id0">
    <path d="M2.96 0c1.64,0 2.97,1.33 2.97,2.96 0,1.64 -1.33,2.97 -2.97,2.97 -1.63,0 -2.96,-1.33 -2.96,-2.97 0,-1.63 1.33,-2.96 2.96,-2.96z"/>
   </clipPath>
 </defs>
 <g id="Capa_x0020_1">
  <metadata id="CorelCorpID_0Corel-Layer"/>
  <g>
  </g>
  <g style="clip-path:url(#id0)">
   <g>
    <g id="_1078175304">
     <path class="fil0" d="M3.62 2.7l-0.06 0.06c-0.14,0.14 -0.25,0.31 -0.35,0.5 -0.07,0.13 -0.22,0.47 -0.24,0.61l0 0.05 0.04 0.04c0.15,0.05 0.27,0.13 0.48,0.13 0.78,0 1.14,-1.13 1.36,-1.65 0.21,-0.5 0.45,-0.59 0.49,-0.69 -0.69,-0.03 -1.61,0.07 -2.1,0.34 -0.28,0.16 -0.47,0.35 -0.58,0.65 -0.05,0.16 -0.07,0.36 -0.05,0.56 0.02,0.15 0.06,0.38 0.12,0.48 0.04,-0.03 0.21,-0.36 0.24,-0.41 0.09,-0.15 0.15,-0.25 0.25,-0.38 0.14,-0.18 0.44,-0.5 0.73,-0.53 -0.09,0.08 -0.24,0.13 -0.33,0.24z"/>
     <path class="fil0" d="M2.41 3.78l-0.05 -0.04c-0.1,-0.1 -0.2,-0.19 -0.33,-0.27 -0.24,-0.15 -0.32,-0.11 -0.45,-0.16 0.29,-0.15 0.98,0.45 1.03,0.46 0,-0.1 -0.03,-0.23 -0.06,-0.34 -0.21,-0.63 -0.87,-0.56 -1.39,-0.4 -0.06,0.02 -0.54,0.18 -0.57,0.23 0.1,0.05 0.17,0.07 0.27,0.13 0.22,0.14 0.35,0.35 0.62,0.55 0.73,0.55 1.03,0 1.03,-0.03 -0.03,-0.06 -0.06,-0.08 -0.1,-0.13z"/>
     <path class="fil0" d="M3.01 3.96l-0.04 -0.04 0 -0.05c-0.03,0.03 -0.01,-0.04 -0.03,0.04 0.03,0.04 0.02,0.03 0.07,0.05z"/>
     <path class="fil0" d="M3.56 2.76l0.06 -0.06c-0.04,0.02 -0.02,0 -0.04,0.03 -0.02,0.02 -0.01,0 -0.02,0.03z"/>
     <polygon class="fil0" points="2.41,3.78 2.4,3.75 2.36,3.74 "/>
    </g>
   </g>
  </g>
  <path class="fil1" d="M2.96 0c1.64,0 2.97,1.33 2.97,2.96 0,1.64 -1.33,2.97 -2.97,2.97 -1.63,0 -2.96,-1.33 -2.96,-2.97 0,-1.63 1.33,-2.96 2.96,-2.96z"/>
 </g>
</svg>
