<?xml version="1.0" encoding="UTF-8"?>
<!DOCTYPE svg PUBLIC "-//W3C//DTD SVG 1.1//EN" "http://www.w3.org/Graphics/SVG/1.1/DTD/svg11.dtd">
<!-- Creator: CorelDRAW 2019 -->
<svg xmlns="http://www.w3.org/2000/svg" xml:space="preserve" width="80px" height="80px" version="1.1" style="shape-rendering:geometricPrecision; text-rendering:geometricPrecision; image-rendering:optimizeQuality; fill-rule:evenodd; clip-rule:evenodd"
viewBox="0 0 7.04 7.04"
 xmlns:xlink="http://www.w3.org/1999/xlink"
 xmlns:xodm="http://www.corel.com/coreldraw/odm/2003">
 <defs>
  <style type="text/css">
   <![CDATA[
    .fil1 {fill:none}
    .fil0 {fill:black}
   ]]>
  </style>
   <clipPath id="id0">
    <path d="M3.52 0c1.94,0 3.52,1.58 3.52,3.52 0,1.94 -1.58,3.52 -3.52,3.52 -1.94,0 -3.52,-1.58 -3.52,-3.52 0,-1.94 1.58,-3.52 3.52,-3.52z"/>
   </clipPath>
 </defs>
 <g id="Capa_x0020_1">
  <metadata id="CorelCorpID_0Corel-Layer"/>
  <g>
  </g>
  <g style="clip-path:url(#id0)">
   <g>
    <path class="fil0" d="M2.88 2.98c-0.09,-0.05 -0.08,-0.12 -0.09,-0.24l-0.1 -0.94c-0.02,-0.18 -0.02,-0.46 -0.11,-0.57 -0.23,-0.28 -0.6,-0.11 -0.67,0.08 -0.04,0.1 -0.02,0.21 -0.01,0.31 0.05,0.38 0.11,0.87 0.14,1.25 0,0.08 0.04,0.23 0,0.29 -0.05,0.09 -0.18,0.07 -0.22,-0.02 -0.08,-0.2 -0.25,-0.9 -0.33,-1.05 -0.2,-0.38 -0.8,-0.18 -0.71,0.26l0.16 0.53c0.05,0.18 0.1,0.35 0.16,0.53 0.06,0.19 0.08,0.37 0.11,0.59 0.16,0.96 0.27,1.75 1.26,2.2 0.83,0.37 1.63,-0.08 2.24,-0.6 0.19,-0.16 0.36,-0.33 0.55,-0.49 0.23,-0.2 0.54,-0.42 0.78,-0.62 0.07,-0.06 0.31,-0.25 0.2,-0.42 -0.16,-0.27 -0.72,-0.31 -1.02,-0.08 -0.06,0.05 -0.34,0.29 -0.39,0.3 -0.09,-0.05 -0.12,-0.15 -0.13,-0.27 -0.01,-0.17 0.02,-0.21 0.07,-0.35l0.69 -1.81c0.1,-0.27 -0.02,-0.45 -0.23,-0.53 -0.26,-0.1 -0.45,0.04 -0.52,0.24 -0.15,0.41 -0.31,0.81 -0.46,1.21 -0.03,0.08 -0.08,0.25 -0.13,0.29 -0.09,0.08 -0.24,0.01 -0.24,-0.12l0.17 -1.5c0.01,-0.11 0.04,-0.27 0.02,-0.37 -0.06,-0.37 -0.51,-0.51 -0.73,-0.23 -0.07,0.09 -0.07,0.18 -0.09,0.32l-0.19 1.7c-0.02,0.11 -0.08,0.11 -0.18,0.11z"/>
   </g>
  </g>
  <path class="fil1" d="M3.52 0c1.94,0 3.52,1.58 3.52,3.52 0,1.94 -1.58,3.52 -3.52,3.52 -1.94,0 -3.52,-1.58 -3.52,-3.52 0,-1.94 1.58,-3.52 3.52,-3.52z"/>
 </g>
</svg>
