<?xml version="1.0" encoding="UTF-8"?>
<!DOCTYPE svg PUBLIC "-//W3C//DTD SVG 1.1//EN" "http://www.w3.org/Graphics/SVG/1.1/DTD/svg11.dtd">
<!-- Creator: CorelDRAW 2019 -->
<svg xmlns="http://www.w3.org/2000/svg" xml:space="preserve" width="80px" height="80px" version="1.1" style="shape-rendering:geometricPrecision; text-rendering:geometricPrecision; image-rendering:optimizeQuality; fill-rule:evenodd; clip-rule:evenodd"
viewBox="0 0 5.12 5.12"
 xmlns:xlink="http://www.w3.org/1999/xlink"
 xmlns:xodm="http://www.corel.com/coreldraw/odm/2003">
 <defs>
  <style type="text/css">
   <![CDATA[
    .fil1 {fill:none}
    .fil0 {fill:black}
   ]]>
  </style>
   <clipPath id="id0">
    <path d="M2.56 0c1.41,0 2.56,1.15 2.56,2.56 0,1.41 -1.15,2.56 -2.56,2.56 -1.41,0 -2.56,-1.15 -2.56,-2.56 0,-1.41 1.15,-2.56 2.56,-2.56z"/>
   </clipPath>
 </defs>
 <g id="Capa_x0020_1">
  <metadata id="CorelCorpID_0Corel-Layer"/>
  <g>
  </g>
  <g style="clip-path:url(#id0)">
   <g>
    <path class="fil0" d="M1.76 4.45c-0.1,-0.27 -0.27,-0.55 -0.03,-0.86l0.05 -0.05c-0.02,0.32 0.03,0.64 0.31,0.7 0.15,0.03 0.29,-0.06 0.3,-0.2 0,-0.16 -0.1,-0.24 -0.16,-0.35 -0.21,-0.39 -0.19,-0.91 0.08,-1.27l0.12 -0.13c0.04,-0.04 0.02,-0.04 0.07,-0.06 -0.1,0.24 -0.17,0.37 -0.08,0.67 0.05,0.2 0.19,0.4 0.29,0.54 0.1,0.14 0.25,0.34 0.29,0.55 0.05,0.23 -0.05,0.41 -0.18,0.58 -0.02,0.02 -0.01,0 -0.02,0.04 0.35,-0.08 0.57,-0.2 0.79,-0.46 0.04,-0.05 0.06,-0.09 0.1,-0.15 0.31,-0.52 0.2,-1.16 -0.17,-1.63 -0.02,-0.02 -0.04,-0.04 -0.06,-0.06 -0.03,-0.04 -0.11,-0.11 -0.14,-0.13 0.05,0.16 0.13,0.32 0.12,0.51 -0.03,0.5 -0.6,0.4 -0.53,-0.05 0.01,-0.09 0.04,-0.18 0.05,-0.26 0.08,-0.5 -0.02,-1.02 -0.32,-1.38l-0.16 -0.16c-0.03,-0.03 -0.04,-0.05 -0.08,-0.08 -0.1,-0.08 -0.24,-0.2 -0.38,-0.25 0.02,0.04 0.04,0.06 0.06,0.1 0.08,0.11 0.14,0.24 0.16,0.38 0.04,0.31 -0.08,0.58 -0.21,0.82l-0.14 0.23c-0.04,0.06 -0.09,0.14 -0.14,0.21 -0.04,0.07 -0.09,0.15 -0.14,0.22 -0.08,0.14 -0.18,0.28 -0.25,0.45 -0.07,0.18 -0.12,0.39 -0.11,0.6 0.02,0.32 0.09,0.49 0.26,0.71 0.02,0.02 0.02,0.03 0.04,0.05l0.17 0.15c0.04,0.02 0,0 0.04,0.02z"/>
   </g>
  </g>
  <path class="fil1" d="M2.56 0c1.41,0 2.56,1.15 2.56,2.56 0,1.41 -1.15,2.56 -2.56,2.56 -1.41,0 -2.56,-1.15 -2.56,-2.56 0,-1.41 1.15,-2.56 2.56,-2.56z"/>
 </g>
</svg>
